<svg width="24" height="25" viewBox="0 0 24 25" fill="none" xmlns="http://www.w3.org/2000/svg">
<g clip-path="url(#clip0_6_2764)">
<path d="M9.99976 13.9538C10.4292 14.528 10.9771 15.003 11.6063 15.3468C12.2355 15.6905 12.9313 15.8949 13.6464 15.9462C14.3615 15.9974 15.0793 15.8942 15.7511 15.6436C16.4229 15.393 17.0329 15.0009 17.5398 14.4938L20.5398 11.4938C21.4505 10.5508 21.9545 9.2878 21.9431 7.97682C21.9317 6.66583 21.4059 5.41177 20.4788 4.48473C19.5518 3.55769 18.2977 3.03184 16.9868 3.02045C15.6758 3.00906 14.4128 3.51303 13.4698 4.42382L11.7498 6.13382" stroke="#008E9A" stroke-width="2.5" stroke-linecap="round" stroke-linejoin="round"/>
<path d="M13.9997 11.9538C13.5703 11.3797 13.0224 10.9047 12.3932 10.5609C11.764 10.2171 11.0682 10.0127 10.3531 9.9615C9.63792 9.91029 8.92013 10.0135 8.24837 10.2641C7.57661 10.5146 6.9666 10.9068 6.45971 11.4138L3.45971 14.4138C2.54892 15.3568 2.04495 16.6199 2.05634 17.9308C2.06773 19.2418 2.59358 20.4959 3.52062 21.4229C4.44766 22.35 5.70172 22.8758 7.01271 22.8872C8.32369 22.8986 9.5867 22.3946 10.5297 21.4838L12.2397 19.7738" stroke="#008E9A" stroke-width="2.5" stroke-linecap="round" stroke-linejoin="round"/>
</g>
<defs>
<clipPath id="clip0_6_2764">
<rect width="24" height="24" fill="white" transform="translate(-0.000244141 0.953857)"/>
</clipPath>
</defs>
</svg>
