<svg width="39" height="53" viewBox="0 0 39 53" fill="none" xmlns="http://www.w3.org/2000/svg">
<path d="M11.1207 20.8957H5.80695V13.5776C5.80695 6.10368 11.9696 0 19.5158 0C27.0619 0 33.2246 6.10368 33.2246 13.5776H27.9108C27.9108 8.99981 24.1378 5.26286 19.5158 5.26286C14.8938 5.26286 11.1207 8.99981 11.1207 13.5776V20.8957Z" fill="#FCB034"/>
<path d="M5.83835 19.4631C4.07759 20.0237 2.34826 20.6776 0.681824 21.4562C0.901919 23.2935 1.21634 25.0997 1.65653 26.8436C3.26009 26.0339 4.92653 25.3488 6.62441 24.7571C6.2471 23.0132 5.96412 21.2382 5.83835 19.4631Z" fill="#00B2C1"/>
<path d="M37.3435 26.8124C37.7837 25.0373 38.0981 23.2623 38.3182 21.4249C36.6517 20.6775 34.9224 19.9924 33.1616 19.4319C33.0044 21.2381 32.7529 23.0131 32.3441 24.7259C34.1049 25.3176 35.7714 26.0338 37.3435 26.8124Z" fill="#00B2C1"/>
<path d="M5.83832 19.4631C5.99553 21.2693 6.24707 23.0444 6.65582 24.7571C10.6804 23.3869 15.0195 22.6395 19.5157 22.6395C24.0119 22.6395 28.351 23.3869 32.3756 24.7571C32.7529 23.0444 33.0359 21.2693 33.1931 19.4631C28.8855 18.0929 24.2949 17.3767 19.5157 17.3767C14.7365 17.3455 10.1459 18.0929 5.83832 19.4631Z" fill="#00B2C1"/>
<path d="M15.1453 49.234C16.5287 50.4797 17.9751 51.6319 19.5157 52.6907C21.0564 51.6319 22.5027 50.4797 23.8862 49.234C22.3455 48.2375 20.8992 47.1787 19.5157 45.9954C18.1323 47.1787 16.6859 48.2375 15.1453 49.234Z" fill="#00B2C1"/>
<path d="M8.25937 30.0513L3.32294 32.0443C5.83832 38.6774 9.92581 44.5631 15.1452 49.2342C16.6859 48.2377 18.1322 47.1789 19.5157 45.9956C14.5164 41.7292 10.6175 36.2795 8.25937 30.0513Z" fill="#00B2C1"/>
<path d="M19.5157 45.9955C20.8992 47.1789 22.3455 48.2377 23.8862 49.2342C30.4262 43.3485 35.2054 35.5944 37.3749 26.8125C35.7714 26.0029 34.1049 25.3178 32.4071 24.7261C30.4891 33.1653 25.8671 40.5458 19.5157 45.9955Z" fill="#00B2C1"/>
</svg>
